<?xml version="1.0" standalone="no"?>
<!DOCTYPE svg PUBLIC "-//W3C//DTD SVG 20010904//EN"
 "http://www.w3.org/TR/2001/REC-SVG-20010904/DTD/svg10.dtd">
<svg version="1.0" xmlns="http://www.w3.org/2000/svg"
 width="250.000000pt" height="250.000000pt" viewBox="0 0 250.000000 250.000000"
 preserveAspectRatio="xMidYMid meet">
<metadata>
Created by potrace 1.11, written by Peter Selinger 2001-2013
</metadata>
<g transform="translate(0.000000,250.000000) scale(0.100000,-0.100000)"
fill="#000000" stroke="none">
<path d="M1110 2493 c-321 -53 -531 -155 -736 -358 -202 -201 -320 -434 -362
-715 -13 -88 -6 -321 12 -409 110 -523 506 -907 1027 -997 60 -11 323 -13 374
-3 133 25 163 31 195 42 19 6 39 15 45 19 5 4 16 8 23 8 23 0 160 68 237 118
283 181 474 458 550 797 19 84 27 327 13 435 -14 119 -69 287 -131 400 -192
354 -506 581 -907 655 -42 8 -304 14 -340 8z"/>
</g>
</svg>
