<svg xmlns="http://www.w3.org/2000/svg" viewBox="0 0 442 76" fill="none"><path fill="#fff" d="m46.57 1.348-.234.468c.703.293 1.113.586 1.172.88.058.175 0 .468-.176.878s-.293.703-.293.88c0 .058 0 .234.059.468.058.234.058.41.058.586s-.058.41-.117.703c-.059.293-.117.527-.117.644 0 .176 0 .352.059.528.058.176.058.293.058.351-.059.176-.176.41-.352.704-.175.292-.292.527-.292.703a7.115 7.115 0 0 0-.118 1.347v1.524c0 .175-.117.41-.293.703-.175.293-.293.527-.293.703-.058.41-.058.996 0 1.758.059.761.118 1.289.118 1.582-.059.293-.235.762-.528 1.348-.293.585-.41 1.113-.351 1.523-.47.176-.762.351-.82.527.058.41-.06.996-.352 1.758-.293.762-.235 1.23.234 1.465-.469 1.055-.703 2.988-.703 5.742 0 .879-.176 2.344-.527 4.395-.176.644-.235 1.054-.235 1.23 0 .059 0 .234.059.527.059.293.059.528.059.704 0 .644-.06 1.582-.235 2.87 0 .235-.058.645-.117 1.231-.059.586-.059.996 0 1.23 0 .06.059.235.117.47.059.234.117.41.117.585l-.351 1.055c0 .234.058.645.176 1.23.117.586.175.996.175 1.29 0 .058-.058.234-.117.527-.058.293-.117.527-.117.703 0 .176.059.41.117.762.059.351.117.586.117.761 0 .059-.058.235-.175.47-.118.233-.176.41-.176.468 0 .469.058 1.172.234 2.11 0 3.105.176 4.98.586 5.624-.059.996-1.348 1.934-3.809 2.871-1.23.293-1.933.293-2.167 0-.06-.058-.118-.234-.118-.468v-.528a.448.448 0 0 0-.117-.293c-.058-.058-.176-.117-.293-.175a1.285 1.285 0 0 1-.293-.176l-.351-.938-.645-.586c-.293-.41-.469-.761-.527-1.054-1.055-1.7-1.758-2.696-2.168-2.989-1.29-2.226-1.992-3.515-2.168-3.867a7.596 7.596 0 0 0-.703-.82l-.703-.703c-.176-.176-.352-.469-.586-.88-.235-.41-.41-.644-.47-.702-.058-.176-.233-.352-.468-.528-.234-.175-.41-.293-.586-.351-.293-.41-.703-1.172-1.172-2.285-.468-1.114-.879-1.875-1.289-2.344-.058-.059-.234-.176-.527-.352-.293-.175-.469-.351-.527-.527-.235-.234-.82-.996-1.817-2.285-.996-1.29-1.816-2.168-2.52-2.637 0-.41-.292-.82-.878-1.172-.586-.351-.88-.644-.938-.82-.058-.059-.117-.234-.175-.527-.06-.293-.118-.47-.176-.528a2.387 2.387 0 0 0-.352-.644c-.176-.235-.293-.41-.351-.47-.176-.175-.352-.468-.528-.878-.176-.41-.234-.645-.234-.762-.059-.058-.235-.175-.469-.351-.234-.176-.41-.352-.469-.528-.058-.175-.234-.585-.468-1.23-.235-.469-.762-1.29-1.582-2.402-.82-1.114-1.348-1.934-1.641-2.461a15.918 15.918 0 0 0-.352-1.348c-.175-.586-.351-1.055-.527-1.348a7.92 7.92 0 0 0-.762-.879l-.82-.82c-.234 0-.293.293-.234.879.058.586.117.938.117 1.113 0 .176-.059.47-.235.88-.175.41-.175.702 0 .878A2.36 2.36 0 0 0 7.43 22.5a5.182 5.182 0 0 0 0 1.348c.058.41.117.937.175 1.64.06.703.118 1.23.118 1.582 0 .352 0 .82-.059 1.407-.059.585-.059 1.054 0 1.464.059.41.234.762.527 1.055-.41.469-.586 1.29-.527 2.402.059.528.059 1.465 0 2.813s-.059 2.285 0 2.812l.352 1.23c.234.88.41 1.583.527 2.052.059.293.059.761-.059 1.465-.117.703-.175 1.171-.175 1.464 0 .645.175 2.227.527 4.805.351 2.578.41 4.336.176 5.332a7.52 7.52 0 0 1-.41.938c-.235.468-.352.82-.352 1.054 0 .235.117.586.293 1.055s.234.82.176 1.055c-.176.879-1.172 1.406-2.989 1.523H2.273c-.234-.293-.058-1.465.47-3.516.702-3.457.878-6.796.468-10.078-.176-2.226-.352-4.16-.586-5.742-.059-.527-.117-1.406-.117-2.637 0-1.23-.059-2.226-.235-2.988-.175-1.113-.293-2.754-.351-4.922-.059-2.168-.117-3.574-.176-4.218l-.351-4.102c0-1.113-.06-2.695-.235-4.746-.176-2.05-.234-3.516-.234-4.395 0-.234 0-.644-.059-1.23a15.838 15.838 0 0 0-.176-1.348c-.058-.293-.058-.644 0-1.054.059-.41.176-.82.293-1.172.118-.352.293-.586.528-.762.234-.176.996-.41 2.226-.703s2.11-.41 2.637-.41c.293 0 .645.175 1.055.586.058.293 0 .996-.176 2.109.293.41.527 1.055.644 1.992.118.938.293 1.582.47 1.992.058.176.292.47.644.938.351.469.586.82.761 1.113 0 .059.059.176.118.352.058.175.117.293.117.351l.879 1.114c.058.234.234.644.527 1.23.293.586.527.938.703 1.113.059.176.235.352.469.528l.644.41c.176.117.352.293.47.586.116.293.175.586.175.879 1.055 1.289 1.582 1.992 1.523 2.05.059.176.118.47.118.88 0 .41.058.761.117 1.054.058.293.293.527.644.703.235 0 .41-.176.47-.469.058-.293.175-.468.35-.527.235.234.41.703.528 1.406.117.703.293 1.29.469 1.817.175.527.527.761 1.054.761.059.293.235.586.528.88.293.292.469.527.527.702.059.059.176.176.293.41.117.235.235.352.352.41.175.235.527.528 1.054.88.528.351.88.644 1.055.879.176.175.352.41.586.761.234.352.41.586.586.762.176.176.41.352.703.586.293.234.469.41.527.527l.762.82 1.758 1.817c.176.176.469.527.82 1.055.352.527.645.879.88 1.113.058.059.233.176.526.352.293.175.47.351.528.527.176.176.41.41.644.703.235.293.41.469.47.527.058.176.233.352.526.528.293.175.47.293.528.351.058.176.176.41.293.703.117.293.234.528.293.703.234.294.703.704 1.347 1.231.996.996 1.7 1.816 2.168 2.46.176-.175.235-.41.235-.644 0-.234-.059-.527-.117-.82-.06-.293-.118-.527-.118-.703 0-.176.059-.41.176-.703.117-.293.176-.528.176-.703 0-.059-.059-.235-.117-.47-.059-.233-.059-.41 0-.585 0-.059.058-.234.117-.469.059-.234.117-.468.117-.644 0-.41-.059-.996-.117-1.817-.059-.82-.117-1.465-.117-1.933 0-.235.058-.645.175-1.23.118-.587.176-.938.176-1.114 0-.41-.058-.996-.175-1.7-.118-.702-.176-1.23-.176-1.523 0-.234.117-.644.351-1.23.235-.586.352-.996.352-1.23 0-.06 0-.235-.059-.47-.058-.234-.058-.468-.058-.644 0-.41.117-1.172.293-2.285.175-1.113.293-1.992.293-2.637.058-.176.058-.41 0-.703-.059-.293-.118-.469-.118-.527 0-.293.118-.762.293-1.348.176-.586.293-.996.352-1.23l.234-1.7c.176-.644.235-1.113.235-1.406.41-1.758.586-2.87.586-3.281 0-.176-.059-.41-.118-.703-.058-.293-.117-.528-.117-.703 0-.059.059-.235.235-.528.175-.293.234-.527.234-.703v-1.289c.059-.469.234-1.172.527-2.168.293-.996.47-1.7.528-2.11 0-.175 0-.41-.059-.702-.059-.293-.059-.528-.059-.703 0-.06.06-.293.235-.645.176-.352.234-.586.234-.762a4.306 4.306 0 0 0 0-1.23 2.843 2.843 0 0 1 0-.996c.059-.293.176-.586.41-.82.293-.294.703-.528 1.23-.645.528-.117 1.231-.117 2.052 0 .82.117 1.289.176 1.347.176Zm33.223 11.015-.527.762c.703-.293 2.226-.176 4.57.352.645.234 1.582.82 2.812 1.699l1.465 1.054c.059.06.235.118.528.176.293.059.468.059.527.059 1.348.469 3.281 1.465 5.8 2.988.88.527 2.11 1.524 3.692 2.988.059.059.176.118.352.176.175.059.351.117.469.176.117.059.234.117.292.176l.235.234c.176.176.351.41.527.762.176.351.293.586.352.762.703 1.23 1.054 2.988 1.054 5.273-.175 3.574-.351 5.742-.586 6.504-.058.293-.175.644-.351 1.113s-.293.82-.293 1.055v1.055c0 .468-.059.82-.117 1.054-.059.176-.235.469-.469.88-.234.41-.352.644-.352.702-.175 1.114-.292 1.817-.41 2.11-.293.644-.937 1.523-1.875 2.695-.937 1.172-1.582 2.168-1.875 2.988-.527.176-1.054.41-1.523.762-.469.352-.996.762-1.524 1.289l-1.113 1.113c-.293.235-.82.645-1.582 1.29-.762.644-1.348 1.054-1.758 1.288-.175.059-.351.118-.586.176-.234.059-.41.176-.468.293-.293.176-.703.469-1.23.88-.528.41-.821.644-.88.702l-3.867 2.168c-.644 0-1.64.059-2.988.235a64.09 64.09 0 0 1-3.164.351c-.762.059-1.7.059-2.754 0a12.79 12.79 0 0 1-2.813-.469c-4.511-1.523-7.968-3.574-10.37-6.093-2.579-2.578-3.927-6.27-4.044-11.075a49.48 49.48 0 0 1-.351-2.168c0-.175.058-.41.175-.703.118-.293.176-.527.176-.703v-1.347l.703-1.407c.059-.234.176-.586.293-1.054.117-.47.235-.82.293-1.055.703-1.934 1.23-3.164 1.582-3.75.059-.176.176-.469.352-.879.176-.41.351-.703.527-.879l.469-.469c.234-.234.41-.468.586-.644.293-.469.586-.82.879-1.055.176-.176.41-.527.761-1.113.352-.586.645-.996.88-1.23.175-.176.527-.47 1.113-.88.586-.41 1.054-.761 1.406-1.054.351-.293.586-.703.762-1.172.761-.293 1.582-.879 2.402-1.7a6.17 6.17 0 0 0 .469-.527c.234-.293.41-.527.586-.703.058-.058.175-.176.351-.293.176-.117.352-.234.586-.351.235-.117.41-.235.469-.293l2.402-1.7c.176-.058.352-.234.586-.468.235-.235.41-.41.586-.469 1.114-.762 3.047-1.64 5.801-2.637Zm2.637 4.453-.176.059c-.176 0-.41.117-.762.352-.351.234-.586.293-.761.117l-1.583 1.523c-1.054.41-1.582.762-1.64 1.055l-.762-.41c-.293.175-.644.644-1.055 1.465-.41 0-.761.058-1.054.234a2.02 2.02 0 0 0-.703.703c-.176.293-.293.469-.352.527-.469.059-.938.293-1.406.704l-.645.585-.703.352a3.655 3.655 0 0 0-.703.527l-1.113 1.055c-.176.059-.41.176-.762.352a2.84 2.84 0 0 0-.762.527c-.234.176-.879 1.172-1.933 2.988a7.92 7.92 0 0 1-.762.88c-.352.35-.527.585-.586.644-.059.058-.176.234-.293.527-.117.293-.234.469-.293.586l-.352.41a1.385 1.385 0 0 0-.351.527c-.059.235-.176.586-.352 1.055-.175.469-.351.762-.527.938 0 .058-.117.351-.352.82a4.698 4.698 0 0 0-.41 1.172c0 .176.059.351.117.527.06.176.118.293.118.352-.41.293-.586.996-.586 2.11-.235.995-.352 1.523-.352 1.64.235 4.043.41 6.27.469 6.68.527 2.636 1.289 4.745 2.285 6.269 1.29 2.168 3.34 3.516 6.153 4.102 2.812.585 5.742.292 8.788-.82.41-.06.88-.294 1.407-.704s.937-.644 1.172-.703c.293 0 .527-.059.703-.117.293-.059 1.23-.586 2.754-1.524 3.925-2.636 6.035-4.101 6.328-4.336 1.582-1.289 2.695-2.402 3.34-3.34.644-.937 1.113-1.816 1.347-2.578.528-.468 1.055-1.523 1.524-3.164.058-.234.234-.586.469-.996l.468-.879c.059-.234.117-.586.117-1.054V37.44c0-.175.059-.468.235-.82.176-.352.234-.644.234-.879.235-3.515.293-5.508.235-5.976-.41-3.516-1.23-5.801-2.461-6.856-.293-.234-1.23-.82-2.813-1.7-1.465-.76-2.578-1.112-3.34-1.054-.703.059-1.933.352-3.75.82-.175 0-.41.06-.703.176-.293.117-.527.235-.703.293-.176.059-.351.117-.586.117-.234 0-.41-.058-.527-.234-.117-.176-.176-.41-.176-.703 0-.234.117-.527.41-.82.293-.293.41-.586.352-.88.058-.175.293-.35.644-.585.352-.235.528-.469.469-.703-.059-.41-.762-.645-2.11-.703-.175 0-.351-.059-.527-.118h-.351ZM123.62 4.453l.234.938c.176.175.586.351 1.172.527.586.176.996.41 1.231.703 0 .059-.059.234-.117.527-.059.293-.118.586-.176.82-.059.235 0 .47.176.704 4.746-.235 7.675-.293 8.789-.235 1.23.176 2.343.06 3.34-.351.175.059.351.176.585.351.235.176.469.235.645.235 3.75.469 7.148 1.289 10.195 2.52 2.168.878 3.457 1.347 3.867 1.406.176.175.997.761 2.461 1.816 1.465 1.055 2.403 2.05 2.813 2.93.996 2.285 1.055 4.218.176 5.8-.879.41-1.524 1.114-1.875 2.169-.059.175-.117.527-.176 1.054-.059.527-.117.88-.176 1.055-.058.234-.293.469-.644.644-.352.176-.586.293-.645.352-.176.176-.41.586-.762 1.23-.351.645-.644 1.055-.879 1.29-.41-.06-.761 0-1.054.234-.293.234-.586.469-.879.762-.293.293-.527.527-.762.703-.234.175-.762.468-1.582.879-.82.41-1.406.761-1.699 1.054-.176 0-.352-.058-.586-.234-.234-.176-.469-.234-.703-.176-.059 0-.235.41-.469 1.29a3.074 3.074 0 0 1-.82.702c-.293.176-.703.352-1.172.528-.469.175-.82.293-1.055.351-.176.059-.469.235-.937.528-.469.293-.821.527-1.114.703-1.23.644-1.933 1.054-2.109 1.23-.059.528-.059.938 0 1.172.059.234.352.469.82.703.469.235.762.41.938.586.058.059.176.234.293.469.117.234.234.41.293.469l.469.117c.234.058.41.117.468.176.235.175.469.41.703.761.235.352.469.528.645.586.059 0 .176 0 .352.059.175.058.293.117.41.176.117.058.234.117.293.175l.879 1.172c.703.469 1.113.762 1.171.88.176.175.352.41.586.702.235.293.411.47.469.528.176.058.469.175.938.351.468.176.761.352.937.528.234.175.527.468.879.879.352.41.645.703.82.878 1.114.88 1.7 1.407 1.758 1.582 1.113.059 1.817.645 2.051 1.758 1.992 1.348 3.34 2.461 4.043 3.34.996.996 1.465 1.758 1.406 2.285a3.648 3.648 0 0 1-2.109.117c-.762-.175-1.348-.468-1.758-.879-.059-.058-.176-.058-.352 0-.175.06-.293.118-.351.118l-.352-.117c-.293-.176-.586-.352-.879-.47-.293-.116-.468-.234-.527-.292-.176-.059-.293-.235-.352-.469-.058-.234-.175-.41-.351-.469-.41-.41-1.113-.937-2.109-1.582-.879-.703-2.11-1.758-3.692-3.222-.234-.235-.586-.47-1.055-.762-.468-.293-.761-.527-.937-.703-.176-.176-.352-.41-.586-.703a6.02 6.02 0 0 0-.469-.528c-.41-.41-1.347-1.113-2.871-2.11-.176-.175-.41-.35-.703-.585-.293-.234-.527-.41-.703-.586-2.754-1.523-4.336-2.637-4.805-3.281-.527-1.23-.937-1.817-1.23-1.758-.293-.059-1.465.117-3.516.527-.703.235-1.289.528-1.699.938-.293.41-.469 1.347-.469 2.812 0 .47.059 2.285.235 5.39v3.927c0 2.168.058 3.75.234 4.746-.176.293-.41.527-.703.644-.293.117-.528.176-.762.176-.234 0-.527-.059-.937-.234-.411-.176-.704-.235-.879-.235-1.817-.527-2.813-.879-2.989-1.054-.234-1.465-.234-3.985-.058-7.617.176-3.633.058-6.036-.41-7.208-1.231.06-2.52-.292-3.868-1.113a34.852 34.852 0 0 0-1.113-.351c-.586-.176-.937-.41-1.113-.703.176-.235.469-.41.82-.47.352-.058.821-.116 1.348-.175a8.924 8.924 0 0 0 1.113-.176c1.758-.234 2.813-.586 3.164-.996.176-.293.235-.762.235-1.348 0-.586-.059-1.289-.118-2.109-.058-.82-.117-1.406-.117-1.7V34.16c0-.703-.176-1.875-.527-3.515 0-.176-.117-2.637-.352-7.442 0-.176-.058-.469-.175-.879-.118-.41-.176-.644-.176-.703v-3.867a.716.716 0 0 0-.235-.527.718.718 0 0 1-.234-.528 4.346 4.346 0 0 1-.117-1.055c0-.468-.059-.82-.235-1.054-.879 0-2.109.41-3.691 1.172-1.055.468-1.875.703-2.52.644-1.933-.175-3.515-.761-4.746-1.816.469-.996 2.051-1.934 4.805-2.813.703-.293 1.699-.586 3.047-.879 1.816-.468 2.754-.761 2.754-.82.293-.234.351-.937.176-2.05-.176-1.114-.235-1.876-.176-2.286.176-.41.703-.644 1.582-.762.879-.117 1.465-.293 1.699-.527Zm8.203 5.625-.058.059c-.528-.469-1.114-.528-1.758-.117-.235.175-.176.351.117.585 1.055-.175 1.641-.351 1.699-.527Zm.879.762-.293-.059c-.234 0-.586.117-1.055.352-.468.234-.82.351-1.054.351h-1.758c-.879.176-1.934.645-3.105 1.407.175 1.289.234 2.988.234 5.156v4.043a.528.528 0 0 0 .351.351c.176.235.235.47.235.704.058.293 0 .761-.176 1.464s-.234 1.23-.234 1.582c0 .352.175.704.468 1.114.293.41.469.644.469.703v.996c0 .176.059.41.235.703.175.293.234.469.234.527.058.645.117 1.7.117 3.164 0 1.465.059 2.637.234 3.457 1.29.762 2.872.938 4.688.47.645-.177 1.699-.645 3.164-1.407.293-.176.762-.469 1.406-.938.645-.468 1.114-.761 1.348-.82h1.113c.235-.058.528-.234.821-.527.293-.293.527-.469.703-.528.293-.175.879-.468 1.757-.878.879-.41 1.583-.82 2.051-1.172a24.51 24.51 0 0 0 1.875-1.582c.762-.703 1.289-1.172 1.582-1.407.059-.058.235-.175.528-.293.293-.117.527-.234.703-.41.176-.175.468-.468.879-.937.41-.469.703-.762.879-.938 1.992-2.05 2.695-5.097 2.05-9.14-.234-1.582-2.05-2.93-5.507-4.043-.762-.235-1.583-.41-2.403-.586-2.754-.528-4.453-.762-5.156-.703-.234 0-.527.058-.938.175-.41.118-.703.176-.878.176-.059 0-.235-.058-.469-.176-.235-.117-.41-.175-.586-.175-.235 0-.703.058-1.406.175-.704.118-1.289.118-1.7 0-.175 0-.41-.058-.703-.175-.293-.118-.527-.176-.703-.176ZM175.359.82l-.351.352c.176.058.879.293 2.168.644 1.289.352 2.109.82 2.519 1.348.059.41.235.879.528 1.465.293.586.468 1.055.468 1.465.469.527 1.055 1.465 1.758 2.812.703 1.348 1.289 2.344 1.699 2.93.293.469.821 1.113 1.582 1.992.762.879 1.29 1.524 1.582 1.992.059 0 .176 0 .352.059s.293.117.352.176c.175.644.41 1.23.761 1.816.352.586.879 1.29 1.582 2.168.703.879 1.114 1.348 1.172 1.465 1.758 2.285 2.93 3.691 3.457 4.16.235-.176.469-.41.703-.703.235-.293.469-.469.645-.527.234-.528.937-1.641 2.168-3.282.41-1.289.996-2.109 1.816-2.52l2.52-4.628 1.055-1.816c.175-.235.351-.586.527-.997.176-.41.293-.703.351-.879.176-.234.469-.585.821-1.054.351-.469.644-.938.82-1.348.176-.41.293-.82.352-1.289l.468-.293c.411-.234.704-.41.879-.586.059-.058.117-.176.176-.351l.117-.47c.059-.175.059-.292.059-.35.41-.88 1.113-1.348 2.168-1.407l.82-.41c.41-.176.703-.293.938-.293.234 0 .586.059 1.054.234.176 0 .293-.117.41-.293.118-.175.235-.234.411-.175l.351 1.406c.762.527 1.172 1.23 1.231 2.11.175.234.468.468.879.702.41.235.703.352.878.41 1.114.88 1.7 1.7 1.758 2.461 0 .176 0 .47-.058.938-.059.469 0 .762.175.937-.292 1.465-.41 2.579-.351 3.399 0 .058.059.176.176.293.117.117.175.234.175.293 0 .058 0 .176-.058.351-.059.176-.059.293-.059.352l.176.527.176.528c0 .175-.059.468-.176.937-.117.469-.176.82-.176 1.113 0 .176.059.352.235.528.175.175.293.351.41.527 0 .059-.059.234-.176.527-.117.293-.176.47-.176.528 0 .058.059.234.176.586.117.351.176.527.176.586a1.95 1.95 0 0 1 0 .82c-.059.293-.059.527-.059.703 0 .176.059.352.235.527a.718.718 0 0 1 .234.528v.937c0 .645.059 1.64.234 2.989.176 1.347.235 2.285.235 2.87.058.645.175 1.641.293 2.989.117 1.348.234 2.344.293 2.988.527 2.813.82 4.63.82 5.39l-.117.821c0 .176.117.527.293 1.055.176.527.293.879.293 1.113v1.406c0 .645.058 1.172.117 1.582 0 .645.117 1.524.293 2.696.176 1.172.293 2.11.351 2.754v1.64c0 .176.118.528.352 1.055v1.523c0 .176.059.41.117.762.059.352.117.586.117.762 0 .058-.058.234-.117.527-.058.293-.117.527-.117.703 0 .528.117 1.407.41 2.637s.41 2.11.41 2.637a3.415 3.415 0 0 1-1.523.351c-.234-.058-.469-.234-.762-.469-.293-.234-.527-.351-.703-.351h-1.055a1.816 1.816 0 0 1-1.054-.527c-.293-.293-.469-.703-.586-1.23-.117-.528-.176-.997-.235-1.407a30.205 30.205 0 0 1-.175-1.875c-.059-.82-.059-1.465-.059-1.934-.059-1.113-.293-3.75-.703-7.91 0-.293-.059-1.523-.235-3.691-.175-2.168-.351-3.809-.527-4.922-.293-3.34-.469-5.04-.469-5.098 0-.176-.058-.351-.117-.586-.176-.293-.234-.527-.234-.703-.059-.234-.059-.586 0-1.113.058-.528.058-.88.058-1.055 0-.058-.058-.234-.234-.527-.176-.293-.234-.528-.234-.703 0-.059.058-.41.117-.996.058-.586.058-1.055 0-1.465 0-.235-.059-.586-.235-1.055a8.107 8.107 0 0 1-.351-1.172c0-.058 0-.176.059-.351.058-.176.058-.293.058-.352-.234-.703-.351-1.113-.351-1.23-.059-.235-.059-.586.058-1.114.117-.527.176-.879.176-1.054-.059-.235-.176-.528-.352-.938-.175-.41-.234-.703-.234-.937l-.352-4.688c-.058-.176-.234-.293-.468-.351-.235-.059-.352-.118-.352-.176a18.792 18.792 0 0 1 0-2.578c.059-.82.059-1.641 0-2.52s-.176-1.582-.351-2.11c-.293.177-.704.47-1.231.88-.527.41-.879.703-1.113.879-.293 1.23-.586 1.992-.821 2.285-.175.175-.41.351-.761.586-.352.234-.528.41-.586.468-.176.176-.41.528-.703 1.114-.293.586-.586.937-.938 1.113 0 .469-.117.879-.351 1.172a7.108 7.108 0 0 1-.938.996c-.41.352-.703.645-.879.879 0 .058 0 .176-.058.351l-.176.528c-.059.175-.117.293-.176.351-.059.235-.234.47-.527.762-.293.293-.469.527-.528.703-.175.176-.41.527-.703 1.055-.293.527-.469.879-.527 1.055-.879 1.23-1.289 2.285-1.231 3.222-.175.059-.351 0-.527-.176-.058-.175-.117-.234-.176-.234 0 .293-.234.645-.703 1.113-.469.47-.703.82-.703 1.114-.059.293-.059.585.059.878.117.293.293.645.586.997.293.351.468.585.586.761a.812.812 0 0 0 .527 0h.234c0 .41.117.88.41 1.407s.411.82.411.879c-.469.468-.879.703-1.231.644-.351-.059-.82-.176-1.406-.352-.586-.175-1.055-.293-1.348-.293-.293.06-.644.293-.996.704-.351.41-.586.586-.762.586-.293.058-.996-.235-2.109-.88-.527-.292-.937-.527-1.172-.703-.234-.175-.527-.468-.937-.878-.411-.41-.586-.82-.528-1.23.059-.411.293-.88.703-1.407.645-.645.997-1.055 1.055-1.29.059-.527-.234-1.171-.937-1.874-.704-.703-1.055-1.29-1.114-1.7-.761-.527-1.816-1.699-3.105-3.456-.235-.293-.528-.762-.938-1.348-.41-.586-.703-1.055-.937-1.348-.059-.058-.176-.175-.352-.293a2.228 2.228 0 0 1-.351-.293l-.469-.996c-.059-.058-.234-.176-.469-.351-.234-.176-.41-.352-.469-.528 0-.058-.058-.175-.117-.351-.058-.176-.117-.293-.117-.352-.059-.176-.41-.586-1.055-1.172-.644-.586-1.054-1.113-1.23-1.582a.845.845 0 0 0-.527-.644l-.411-.938h-1.289c.176.645.118 1.582-.117 2.813-.234 1.23-.293 2.11-.117 2.636-.176.997-.234 1.641-.176 1.934-.234.234-.351 1.055-.351 2.52 0 .293-.118.82-.352 1.64-.234.82-.351 1.406-.41 1.817 0 .175 0 .41.059.761.058.352.058.586.058.762 0 .234-.058.527-.234.879a2.008 2.008 0 0 0-.235.938v1.054a9.226 9.226 0 0 0-.175.938c-.059.41-.118.703-.176.937a185.135 185.135 0 0 1-.938 6.856c0 .175-.058.351-.117.527-.058.176-.117.352-.117.527-.059.47-.176 1.7-.352 3.692-.175 1.992-.468 3.34-.937 4.043.176.644.117 1.172-.117 1.582 0 .175.058.351.117.527.058.176.117.293.117.352-.41.234-.644.703-.762 1.465-.117.761-.058 1.347.176 1.816-.644.703-.879 1.582-.703 2.578.176.996.176 1.992.059 2.988-.118.996-.586 1.524-1.407 1.582-.468.059-.937-.117-1.464-.527-.528-.41-.997-.645-1.465-.645-.528-.234-.821-.703-.879-1.406-.059-.703 0-1.523.176-2.52v-1.347c0-.586.058-.996.117-1.23 0-.176.058-.352.175-.528.118-.176.176-.293.176-.351v-1.582c0-.176.059-.352.235-.528.175-.175.234-.293.234-.351 0-.176 0-.352-.059-.586-.058-.235-.058-.41-.058-.469a1.6 1.6 0 0 1 .234-.82c.176-.293.235-.528.235-.703v-1.934c.468-2.227.644-3.457.586-3.691.234-.293.41-.645.527-1.055.117-.41.176-.938.176-1.524 0-.586.058-1.054.117-1.347 0-.059.058-.235.234-.469.176-.234.235-.41.235-.586.175-.644.293-1.7.351-3.105.059-1.407.117-2.285.176-2.578.059-.41.176-1.172.351-2.227.176-1.055.293-1.875.352-2.461.176-.762.352-1.934.527-3.516.176-1.582.352-2.754.528-3.515 0-.176.058-.469.176-.938.117-.468.175-.82.175-1.054 0-.059-.058-.235-.117-.528-.058-.293-.058-.527 0-.703 0-.176.059-.41.117-.703.059-.293.118-.527.118-.703v-.996c0-.293.058-.703.234-1.172 0-.703-.059-1.817-.117-3.399-.059-1.582-.059-2.636 0-3.222 0-.059.058-.235.234-.528.176-.293.234-.527.234-.703 0-.234-.175-.703-.468-1.347-.293-.645-.41-1.114-.352-1.407.059-.234.293-.468.703-.644s.645-.293.703-.352Zm78.047 3.399-.234 1.113c.527-.176 1.465-.117 2.754.117.176.059.41.176.703.352s.469.293.527.293l2.168.82c.235.469.117 1.113-.41 1.934-.527.82-.762 1.347-.762 1.582 0 .175.059.41.235.761.175.352.234.586.234.762.059.235.117.645.176 1.23.058.587.117.997.176 1.231.058.234.293.703.703 1.348.41.644.703 1.113.879 1.347l.351.528c.235.293.41.527.469.703.059.41.176.996.352 1.816.175.82.293 1.407.351 1.817.059.234.234.527.469.937.234.41.351.645.351.703.059.176.235.41.469.762.235.352.41.645.469.879.176.41.352 1.055.527 1.992.176.938.352 1.64.528 2.05.175.411.468.938.82 1.583.351.644.586 1.055.644 1.289.059.234.118.527.118.938v.937c.058.234.234.469.468.703.235.234.411.41.528.469.058.293.117.82.176 1.582.058.762.117 1.289.175 1.582.235.762.469 1.348.703 1.758.235.293.528.527.821.644.293.117.703.235 1.23.293.528.059.938.117 1.172.176.527.234 1.172.645 1.875 1.23.703.586 1.113 1.114 1.172 1.641.059.234.059.527-.059.938-.117.41-.175.703-.175.879 0 .175.117.468.293.937.175.469.234.82.117 1.055-.41.058-.996 0-1.758-.235-.762-.234-1.348-.351-1.816-.351-.059.468-.118.82-.118.996 0 .176.059.527.235.996s.293.82.351 1.055c.059.175.117.41.117.703v.527c0 .059.059.176.235.41.176.235.293.41.41.586.117.176.176.41.234.703.059.293.059.47.059.528.059.293.352.761.82 1.347.469.586.762 1.114.821 1.524.058.058.117.234.117.468v.586c.058.235.293.645.644 1.23.352.587.586.997.645 1.29.644.879 1.113 1.348 1.406 1.406-.176.293-.059 1.055.352 2.227.058.176.234.761.468 1.758.293.644.586 1.289.821 1.933.176.469.527 1.172 1.054 2.11.528.937.879 1.64 1.055 2.167.059.235.176.645.293 1.231.117.586.234.996.293 1.29-.879.468-1.934.644-3.105.526-1.172-.117-1.934-.527-2.344-1.289 0-.293-.469-1.289-1.465-2.988-.234-.527-.996-2.11-2.285-4.687-.059-.235-.235-.586-.528-1.055-.292-.469-.468-.82-.527-.996-.058-.235-.527-1.524-1.406-3.809-.176-.293-.41-.761-.703-1.347s-.469-1.055-.528-1.348c-.058-.059-.117-.234-.117-.469 0-.234-.058-.41-.117-.469-.176-.41-.644-1.523-1.406-3.34-.762-1.816-1.231-3.222-1.465-4.277-.41-1.289-.645-2.05-.762-2.285-1.816-.469-3.926-.762-6.269-.82a125.148 125.148 0 0 0-8.028.058c-2.988.117-5.273.117-6.855.059-.469 1.523-.938 2.52-1.465 2.988a2.21 2.21 0 0 1-.469.293 2.19 2.19 0 0 0-.468.293c-.176.176-.352.586-.528 1.29-.176.702-.469 1.171-.879 1.405-.058.47-.41 1.524-1.054 3.223-.645 1.7-.938 3.164-.879 4.395-.059.175-.293.293-.762.351-.469.059-.703.117-.762.176-1.992-.41-3.222-.586-3.75-.586-.058-.41.059-.879.41-1.406.352-.528.586-.88.645-1.055l.117-.996c.059-.527.235-.938.527-1.172-.175-.879.176-2.226 1.055-4.043.059-.234.235-.644.469-1.23.234-.586.41-.996.469-1.23.058-.177.117-.352.117-.587v-.468c.058-.41.41-.997.996-1.758.586-.762.937-1.29.996-1.524a16.06 16.06 0 0 1 .879-1.875l.82-1.64c.059-.176.176-.41.293-.703.117-.293.235-.528.293-.704.176-.293.41-.761.762-1.406.351-.644.586-1.172.762-1.523 1.347-3.223 2.05-4.864 2.109-4.922.059-.645.527-2.168 1.406-4.57.176-.41.352-.997.528-1.817.175-.82.293-1.348.351-1.64.059-.176.176-.352.352-.586.175-.235.293-.41.351-.586l.469-1.348c.234-.645.41-1.113.586-1.406l2.402-5.39.703-1.466.704-1.465c.058-.175.234-.351.468-.527.235-.176.352-.351.352-.527.058-.469 0-1.23-.234-2.227-.235-.996-.352-1.758-.352-2.285 0-.527.293-.996.82-1.406Zm1.817 12.832-.411.117c-.175.176-.351.996-.527 2.46 0 .177-.117.47-.293.88-.176.41-.293.703-.351.937 0 .176 0 .352.058.586.059.235.059.41.059.469 0 .293-.117.82-.41 1.582-.293.762-.469 1.348-.528 1.758 0 .058.059.176.118.351.058.176.117.352.117.528-.059 1.347-.645 2.695-1.758 3.984.058.703-.176 1.524-.762 2.461-.586.938-.879 1.7-.879 2.285-.996 1.524-1.406 2.578-1.289 3.106-.527.41-.82.703-.82.879.058.293.351.468.879.527.527.059 1.23 0 2.109-.117s1.406-.176 1.582-.176c.059 0 .293.059.645.176.351.117.586.175.761.175.059 0 .235-.058.528-.117.293-.058.527-.117.703-.117.234 0 .586.059 1.055.176.468.117.82.117 1.054.059.059 0 .235-.06.469-.176.234-.117.469-.176.645-.176.175 0 .527.117 1.054.352.528.234.996.351 1.348.351.351 0 .762-.176 1.23-.469 0-1.054-.234-2.636-.703-4.746-.468-2.11-.703-3.633-.703-4.57-.527-.703-1.055-1.992-1.641-3.867-.585-1.875-.878-2.93-.937-3.164 0-.059-.059-.47-.234-1.172-.176-.703-.352-1.23-.528-1.524-.644-.879-.996-1.406-1.054-1.582 0-.058-.059-.41-.118-.996-.058-.586-.234-.996-.468-1.23Zm76.23-8.79.527 1.231c.059.176.528.586 1.407 1.29.527.527.996.937 1.347 1.171.352.235.821.645 1.348 1.172.469.527.996 1.23 1.582 2.05.293.704.234 1.759-.176 3.223-1.113-.644-2.695-1.699-4.746-3.164a.944.944 0 0 0-.527.176.947.947 0 0 1-.527.176c-1.465-1.465-2.579-1.934-3.34-1.465-.235-.41-.645-.586-1.172-.527-.528.058-.938.293-1.231.703-.234-.176-.996-.059-2.285.351-.234.059-.586.176-.996.293-.41.118-.762.235-.996.352-.234.117-.41.352-.586.645-.703-.06-1.641.41-2.754 1.406-.176.175-.41.468-.762.879-.351.41-.644.644-.878.703h-1.172c-.879.293-1.582.879-2.11 1.699l-.937.234c-.235.47-.762.938-1.582 1.407-.821.468-1.348.82-1.582 1.054a1.428 1.428 0 0 0-.703 0 1.131 1.131 0 0 0-.528.293c-.117.117-.234.293-.41.528-.176.234-.352.351-.527.41-.645.469-1.114.82-1.407 1.055-.175.175-.468.527-.937 1.113-.469.586-.938.937-1.348 1.113a2.327 2.327 0 0 1-.527 1.23c-.293.352-.703.704-1.172 1.055-.469.352-.762.586-.937.762-.176.469-.235.82-.235.996-1.699 1.7-2.636 3.223-2.871 4.57-.058.176-.176.293-.351.41-.176.118-.293.235-.352.293 0 .176-.059.47-.234.938-.469.469-.938 1.406-1.407 2.871-.468 1.465-.82 2.402-1.054 2.813.058.292.058.644-.059 1.113-.117.469-.176.82-.176 1.054 0 .06.118.06.352-.058.234-.117.41-.117.469.059 0 .175 0 .351-.059.585-.059.235-.059.41-.059.586 0 .059-.117.118-.41.176-.293.059-.468.176-.527.352-.059.234.059.41.293.527.234.117.351.234.351.41.059.235.118.645.176 1.29.059.644.176 1.054.352 1.288.234.47 1.289 1.055 3.105 1.7.762.234 2.168.41 4.219.586.176 0 .234-.06.234-.235.411 0 .704-.059.879-.117l.235.352h3.281c.469 0 1.113-.118 1.934-.294.82-.175 1.347-.292 1.582-.292.058 0 .175 0 .351.058.176.059.293.059.352.059.234 0 .586-.059.996-.235.41-.175.703-.293.879-.351.175 0 .527 0 .996-.059.469-.058.82-.117 1.054-.176.176 0 .352-.117.528-.293.176-.175.293-.292.351-.292.176 0 .411-.06.704-.176.292-.117.468-.176.527-.235.058-.058.176-.117.351-.234.176-.117.293-.352.352-.645.176-.058.352 0 .527.176a.717.717 0 0 0 .528.235c.058 0 .351-.118.879-.352.527-.234.878-.176 1.054.117.176-.058.41-.234.645-.468.234-.235.469-.352.644-.352.293-.176.762-.293 1.348-.352.586-.058.996-.175 1.172-.293.176-.117.41-.293.703-.527.293-.234.527-.41.703-.469.059 0 .469-.117 1.231-.351.761-.235 1.289-.528 1.523-.938.176 0 .41-.058.703-.117.293-.059.527-.117.703-.117.469.234 1.172 1.289 2.051 3.105.059.176.176.235.352.235.175 0 .293.058.351.117.293 1.055.293 2.05 0 2.988-1.347.645-3.75 1.524-7.148 2.696-3.399 1.171-5.918 2.167-7.617 3.046-.645-.234-1.055-.351-1.231-.351-.176 0-.586.117-1.289.351-.703.235-1.172.41-1.465.47h-.703c-.352 0-.586.058-.762.116-.175 0-.41.117-.761.41-.352.293-.586.41-.762.41-.176 0-.352-.058-.586-.234-.234-.176-.41-.234-.586-.234s-.41.058-.762.234c-.351.176-.527.235-.586.235-.293.058-1.172 0-2.636-.235-1.465-.234-2.403-.176-2.813.235-.41-.235-1.055-.47-1.933-.703-.879-.235-1.465-.47-1.758-.645-.176-.059-.41-.234-.703-.469-.293-.234-.528-.41-.704-.469-2.402-1.992-3.75-3.164-4.042-3.457-.528-.644-1.231-1.757-2.11-3.398-.058-.059-.234-.176-.469-.352-.234-.175-.41-.351-.468-.527-1.114-1.758-1.817-3.516-2.051-5.273-.059-.88.058-2.051.41-3.516.059-.234.117-.586.117-.996 0-.41.059-.703.117-.879a4.54 4.54 0 0 1 .352-.879c.176-.352.234-.586.234-.762.645-2.226 1.348-3.808 2.168-4.804.059-1.055.469-1.817 1.231-2.285a4.416 4.416 0 0 1 1.113-1.524c0-.176 0-.41.059-.644.058-.235.058-.47.058-.645.41-.234.996-.82 1.699-1.7.704-.878 1.407-1.464 2.051-1.698.293-.528.938-1.29 1.934-2.227.996-.938 1.64-1.7 1.933-2.344.528.059 1.817-.644 3.809-2.11l2.93-2.87c.293-.293.937-.645 1.875-.996.937-.352 1.582-.703 1.875-.996l.41-.41c.176-.176.351-.293.527-.352.059-.059.235-.117.469-.117h.469c.234-.059.644-.352 1.172-.88.527-.527.937-.878 1.23-1.054 5.859-2.46 10.488-2.988 13.887-1.582l.234-.234ZM355.301.587v.117c.469-.293 1.23-.234 2.285.176l.234.469c.235.234.469.41.645.527.176.117.41.176.703.234.293.059.527.176.703.293.176.118.234.293.234.528 0 .293-.41.586-1.171.879 0 .293-.059.82-.235 1.582a22.317 22.317 0 0 0-.351 1.757c.175.41.234.704.234.938 0 .234-.059.586-.176 1.055-.117.468-.176.82-.176 1.054 0 .176.059.352.118.586.058.235.117.41.117.469a8.855 8.855 0 0 1 0 3.047c0 .176-.059.351-.117.527-.059.176-.118.293-.118.352 0 .058 0 .176.059.351.059.176.059.352.059.528 0 .175-.059.468-.235.937-.175.469-.234.82-.234 1.055 0 .996 0 2.402-.059 4.219-.058 1.816-.058 3.222-.058 4.218.761.47 1.64.352 2.636-.41.645.235 2.344.352 5.157.41.468 0 1.23-.117 2.226-.293.996-.175 1.699-.293 2.11-.293.41 0 1.054.059 1.933.235.176-.176.586-.293 1.231-.352.644-.058.996-.117 1.054-.175.059-.528.118-1.172.176-1.876.059-.703.117-1.464.176-2.285.059-.82.059-1.465.059-1.875v-7.265c0-3.575.058-5.977.117-7.266.761-.762 1.992-.469 3.633.879 1.289 1.055 1.933 1.934 1.875 2.637.058.175 0 .468-.176.879-.176.41-.235.644-.235.703 0 .234 0 .644.059 1.23s.059.996.059 1.29v8.613c0 .234.058.761.234 1.582 0 .234 0 .527-.059.937-.058.41-.058.703-.058.879 0 .176.058.41.176.645.117.234.293.41.585.468.176 0 .352-.058.586-.175.235-.118.411-.176.586-.176.235-.059.645 0 1.231.175.586.176.996.235 1.172.235.234 0 .703-.059 1.406-.117.703-.059 1.23-.059 1.641 0 .41.058.703.293.878.703.176.058.293-.059.352-.352h.234c.411 2.578.411 5.04 0 7.442-.175 0-.293-.059-.351-.118-.059-.058-.117-.175-.176-.293-.059-.117-.117-.234-.234-.292-.293 0-.645-.176-.996-.528-.352-.351-.645-.586-.879-.644-.469-.176-2.403-.176-5.801 0-.293 1.699-.293 3.515 0 5.449.059.527.059 1.523 0 2.93-.059 1.406-.117 2.46-.117 3.164.058 1.347-.117 4.98-.586 10.84a14.026 14.026 0 0 0-.117 1.816v1.7c0 .058-.059.292-.176.702-.117.41-.176.703-.176.938 0 .175 0 .527.059 1.054.058.528.058.938 0 1.29-.059.351-.235.527-.586.585-.352.059-.586.059-.762-.058-.176-.117-.41-.352-.645-.645-.234-.293-.41-.468-.585-.527-.059-.059-.235-.176-.586-.293-.352-.117-.528-.176-.586-.176-.059-.058-.235-.293-.469-.644-.235-.352-.469-.586-.703-.645-.235-.469-.293-1.875-.117-4.219v-3.75c0-.586.058-1.113.175-1.523.118-.41.293-.703.528-.879-.528-.645-.703-2.402-.469-5.273.176-.059.293 0 .351.234v.234c0 .117.059.176.118.176.293-.41.41-.879.293-1.465-.118-.586-.352-.937-.762-.996-.176-.293-.176-.703 0-1.23.059-.059.176-.059.351 0 .176.058.293.058.293 0 .411-.528.176-.938-.703-1.172-.058-.235-.117-.645-.117-1.23.059-.06.176-.118.352-.176.175-.059.293-.118.351-.176 0-.235-.117-.469-.351-.762-.235-.293-.352-.527-.352-.703-.058-.234-.058-.586.059-1.113.117-.528.176-.88.176-1.055-.059-.469-.235-1.113-.528-1.934-.176.059-.586.118-1.289.176-.703.059-1.113.176-1.289.352-.703-.176-1.641-.117-2.871.117-1.231.234-2.051.352-2.461.352-1.23 0-1.992.117-2.285.351-.059 0-.293-.059-.703-.234-.41-.176-.703-.235-.938-.176-.058 0-.176.059-.293.234-.117.176-.234.293-.41.352-.058.058-.176.117-.351.234a3.317 3.317 0 0 1-.411.235c-.117.058-.175.175-.234.351-.059.176-.059.352-.059.527a2.273 2.273 0 0 1-.293-.468c-.117-.235-.234-.41-.41-.469-1.23.293-2.168.41-2.812.352a4.804 4.804 0 0 0-.469 1.757c-.059.703-.059 1.29 0 1.817.059.527.059 1.172 0 1.933 0 .235-.059.528-.176.938-.117.41-.234.703-.293.879v1.054c0 .47-.058.82-.117 1.055 0 .176-.058.586-.234 1.23-.176.645-.235 1.114-.235 1.465 0 .059.059.235.118.47.058.234.058.41 0 .585 0 .234-.118.645-.293 1.23-.176.587-.293.997-.293 1.231v3.105c-.059.528-.235 1.348-.528 2.462l-.351 2.519c0 .059 0 .234.058.469.059.234.059.41.059.586-.234.468-.352.761-.352.82v.703c0 .176-.058.352-.117.527-.058.176-.117.293-.117.352 0 .176-.059.645-.176 1.465-.117.82-.293 1.347-.527 1.64-.235.176-.528.176-.82.06a8.282 8.282 0 0 1-.645-.294c-.117-.059-.293-.234-.586-.469-.293-.234-.527-.41-.703-.468-.059-.059-.352-.235-.879-.47a5.599 5.599 0 0 1-1.113-.644c-.235-.175-.352-.41-.41-.703 0-.176.058-.586.175-1.23l.293-1.64c0-.294.059-.763.176-1.407.117-.645.234-1.113.293-1.465v-1.758c0-.058.059-.234.176-.527.117-.293.176-.527.176-.703 0-.176-.059-.352-.176-.586-.117-.235-.176-.41-.176-.469 0-.176.117-.352.293-.586.176-.234.293-.41.293-.586.059-.176.117-.41.117-.761v-1.172c0-.293.117-.88.293-1.7s.293-1.406.352-1.816c0-.176 0-.41-.059-.703-.058-.293-.058-.469-.058-.528 0-.292.117-.761.293-1.347.175-.586.293-.996.293-1.23.292-3.223.468-5.45.527-6.68-.41-.235-1.055-.293-1.934-.235-.879.059-1.465 0-1.758-.175-.468-.293-.878-.88-1.171-1.758-.645-2.403-.586-4.219.175-5.508.176 0 .293.058.352.234.059.176.117.235.176.235 1.465 0 3.047-.176 4.804-.47.293-.76.528-2.226.703-4.335 0-.469.118-1.172.293-2.11.176-.937.352-1.699.469-2.226 0-1.113.059-1.758.117-1.875 0-.176.118-.586.293-1.172.176-.586.235-.937.176-1.055-.058-.117-.176-.527-.351-1.171.175-.41.351-2.286.527-5.625 0-2.168.059-3.633.234-4.454.059-.175.176-.351.352-.527l.351-.351a6.06 6.06 0 0 0 .176-.82c.059-.352.176-.645.352-.821Zm19.336 44.883c0 .527.058.879.234.996 0-.176 0-.352.059-.528.058-.175.058-.292.058-.351l-.117-.117h-.234Zm45.117-33.106-.527.762c.703-.293 2.226-.176 4.57.352.644.234 1.582.82 2.812 1.699l1.465 1.054c.059.06.235.118.528.176.293.059.468.059.527.059 1.348.469 3.281 1.465 5.801 2.988.879.527 2.109 1.524 3.691 2.988.059.059.176.118.352.176.175.059.351.117.468.176.118.059.235.117.293.176l.235.234c.176.176.351.41.527.762.176.351.293.586.352.762.703 1.23 1.054 2.988 1.054 5.273-.175 3.574-.351 5.742-.586 6.504-.058.293-.175.644-.351 1.113s-.293.82-.293 1.055v1.055c0 .468-.059.82-.117 1.054-.059.176-.235.469-.469.88-.234.41-.352.644-.352.702-.175 1.114-.293 1.817-.41 2.11-.293.644-.937 1.523-1.875 2.695-.937 1.172-1.582 2.168-1.875 2.988-.527.176-1.054.41-1.523.762-.469.352-.996.762-1.524 1.289l-1.113 1.113c-.293.235-.82.645-1.582 1.29-.762.644-1.348 1.054-1.758 1.288-.176.059-.351.118-.586.176-.234.059-.41.176-.468.293-.293.176-.704.469-1.231.88-.527.41-.82.644-.879.702l-3.867 2.168c-.645 0-1.641.059-2.988.235a64.222 64.222 0 0 1-3.164.351c-.762.059-1.7.059-2.754 0a12.799 12.799 0 0 1-2.813-.469c-4.512-1.523-7.969-3.574-10.371-6.093-2.578-2.578-3.926-6.27-4.043-11.075-.176-.996-.293-1.699-.351-2.168 0-.175.058-.41.175-.703.118-.293.176-.527.176-.703v-1.347l.703-1.407c.059-.234.176-.586.293-1.054.117-.47.235-.82.293-1.055.703-1.934 1.231-3.164 1.582-3.75.059-.176.176-.469.352-.879.176-.41.351-.703.527-.879l.469-.469c.234-.234.41-.468.586-.644.293-.469.586-.82.879-1.055.176-.176.41-.527.761-1.113.352-.586.645-.996.879-1.23.176-.176.528-.47 1.114-.88a21.81 21.81 0 0 0 1.406-1.054c.351-.293.586-.703.762-1.172.761-.293 1.582-.879 2.402-1.7.059-.058.234-.234.469-.527.234-.293.41-.527.586-.703a2.18 2.18 0 0 1 .351-.293c.176-.117.352-.234.586-.351a2.21 2.21 0 0 0 .469-.293l2.402-1.7c.176-.058.352-.234.586-.468.235-.235.41-.41.586-.469 1.113-.762 3.047-1.64 5.801-2.637Zm2.637 4.453-.176.059c-.176 0-.41.117-.762.352-.351.234-.586.293-.762.117l-1.582 1.523c-1.054.41-1.582.762-1.64 1.055l-.762-.41c-.293.175-.645.644-1.055 1.465-.41 0-.761.058-1.054.234-.293.176-.528.41-.703.703-.176.293-.293.469-.352.527-.469.059-.938.293-1.406.704l-.645.585-.703.352a3.657 3.657 0 0 0-.703.527l-1.113 1.055c-.176.059-.411.176-.762.352a2.838 2.838 0 0 0-.762.527c-.234.176-.879 1.172-1.933 2.988a8.005 8.005 0 0 1-.762.88c-.352.35-.527.585-.586.644-.059.058-.176.234-.293.527-.117.293-.234.469-.293.586l-.352.41a1.396 1.396 0 0 0-.351.527c-.059.235-.176.586-.352 1.055-.175.469-.351.762-.527.938 0 .058-.117.351-.352.82a4.73 4.73 0 0 0-.41 1.172c0 .176.059.351.117.527.059.176.118.293.118.352-.411.293-.586.996-.586 2.11-.235.995-.352 1.523-.352 1.64.235 4.043.41 6.27.469 6.68.527 2.636 1.289 4.745 2.285 6.269 1.289 2.168 3.34 3.516 6.152 4.102 2.813.585 5.743.292 8.789-.82.411-.06.879-.294 1.407-.704.527-.41.937-.644 1.172-.703.293 0 .527-.059.703-.117.293-.059 1.23-.586 2.754-1.524 3.925-2.636 6.035-4.101 6.328-4.336 1.582-1.289 2.695-2.402 3.34-3.34.644-.937 1.113-1.816 1.347-2.578.528-.468 1.055-1.523 1.524-3.164.058-.234.234-.586.468-.996l.469-.879c.059-.234.117-.586.117-1.054V37.44c0-.175.059-.468.235-.82.176-.352.234-.644.234-.879.234-3.515.293-5.508.234-5.976-.41-3.516-1.23-5.801-2.46-6.856-.293-.234-1.231-.82-2.813-1.7-1.465-.76-2.578-1.112-3.34-1.054-.703.059-1.933.352-3.75.82-.176 0-.41.06-.703.176-.293.117-.527.235-.703.293a1.737 1.737 0 0 1-.586.117c-.234 0-.41-.058-.527-.234-.118-.176-.176-.41-.176-.703 0-.234.117-.527.41-.82.293-.293.41-.586.352-.88.058-.175.293-.35.644-.585.352-.235.528-.469.469-.703-.059-.41-.762-.645-2.109-.703-.176 0-.352-.059-.528-.118h-.351Z"/></svg>
